<svg xmlns="http://www.w3.org/2000/svg" width="875" height="160" viewBox="0 0 875 160" font-family="ui-monospace, SFMono-Regular, Menlo, Consolas, monospace"><style>
    .b {
      transition: all 0.3s cubic-bezier(.2,.8,.2,1);
      stroke: #30363d;
      fill: #161b22;
      cursor: pointer;
    }
    .b:hover {
      stroke: #22d3ee;
      fill: #0f2d3a;
      filter: drop-shadow(0px 0px 8px rgba(34, 211, 238, 0.5));
    }
    .icon {
      fill: #7d8590;
      transition: all 0.3s ease;
    }
    .b:hover .icon {
      fill: var(--hover-color);
      filter: drop-shadow(0px 0px 4px var(--hover-color));
    }
    .text {
      fill: #7d8590;
      font-size: 11px;
      font-weight: 700;
      transition: all 0.3s ease;
    }
    .b:hover .text {
      fill: #ffffff;
    }
    </style><rect width="875" height="160" rx="12" fill="#0d1117"/><rect x="0.5" y="0.5" width="874" height="159" rx="12" fill="none" stroke="#30363d" stroke-width="1"/><circle cx="24" cy="15.0" r="5" fill="#ff5f56"/><circle cx="40" cy="15.0" r="5" fill="#ffbd2e"/><circle cx="56" cy="15.0" r="5" fill="#27c93f"/><text x="437.5" y="19.0" fill="#7d8590" font-size="12" text-anchor="middle">zulvikar@is-a.dev: ~/skills</text><line x1="0" y1="30" x2="875" y2="30" stroke="#30363d"/><g style="--hover-color: #3776AB;">  <rect class="b" x="67.5" y="48" width="110" height="34" rx="6"/>  <svg x="79.5" y="57.0" width="16" height="16" viewBox="0 0 24 24">    <path class="icon" d="M14.25.18a.25.25 0 0 0-.25.25v2.45c0 .06.05.11.11.11h3.78a2 2 0 0 1 2 2v1.5a.5.5 0 0 0 .5.5h2.46c.06 0 .11-.05.11-.11V4.28a4.1 4.1 0 0 0-4.1-4.1H14.25zM9.75 6.93a.5.5 0 0 0-.5.5v2.45a4.1 4.1 0 0 0 4.1 4.1h4.63a.25.25 0 0 0 .25-.25v-2.6c0-.06-.05-.11-.11-.11h-3.78a2 2 0 0 1-2-2v-1.5a.5.5 0 0 0-.5-.5H9.75z"/>  </svg>  <text class="text" x="103.5" y="69.0">Python</text></g><g style="--hover-color: #F7DF1E;">  <rect class="b" x="193.5" y="48" width="110" height="34" rx="6"/>  <svg x="205.5" y="57.0" width="16" height="16" viewBox="0 0 24 24">    <path class="icon" d="M0 0h24v24H0V0zm20.066 17.2c-.53-.76-1.285-1.19-2.228-1.19-.944 0-1.54.498-1.54 1.205 0 .684.512 1.077 1.488 1.488 1.488.627 2.45 1.254 2.45 2.804 0 1.54-1.21 2.493-2.907 2.493-1.638 0-2.607-.798-3.177-1.924l1.638-1.012c.38.655.885.997 1.54.997.627 0 1.054-.313 1.054-.883 0-.612-.413-.912-1.34-1.312-1.368-.584-2.45-1.197-2.45-2.65 0-1.467 1.14-2.393 2.707-2.393 1.34 0 2.27.57 2.804 1.568l-1.467.812zm-8.032.556v7.218h-1.924V17.82h1.924z"/>  </svg>  <text class="text" x="229.5" y="69.0">JavaScript</text></g><g style="--hover-color: #3178C6;">  <rect class="b" x="319.5" y="48" width="110" height="34" rx="6"/>  <svg x="331.5" y="57.0" width="16" height="16" viewBox="0 0 24 24">    <path class="icon" d="M0 0h24v24H0V0zm20.066 17.2c-.53-.76-1.285-1.19-2.228-1.19-.944 0-1.54.498-1.54 1.205 0 .684.512 1.077 1.488 1.488 1.488.627 2.45 1.254 2.45 2.804 0 1.54-1.21 2.493-2.907 2.493-1.638 0-2.607-.798-3.177-1.924l1.638-1.012c.38.655.885.997 1.54.997.627 0 1.054-.313 1.054-.883 0-.612-.413-.912-1.34-1.312-1.368-.584-2.45-1.197-2.45-2.65 0-1.467 1.14-2.393 2.707-2.393 1.34 0 2.27.57 2.804 1.568l-1.467.812zm-8.032.556v7.218h-1.924V17.82h1.924z"/>  </svg>  <text class="text" x="355.5" y="69.0">TypeScript</text></g><g style="--hover-color: #00599C;">  <rect class="b" x="445.5" y="48" width="110" height="34" rx="6"/>  <svg x="457.5" y="57.0" width="16" height="16" viewBox="0 0 24 24">    <path class="icon" d="M1.2 12c0-5.8 4.7-10.5 10.5-10.5 3.3 0 6.2 1.5 8.2 4l-2.6 2c-1.3-1.5-3.3-2.5-5.6-2.5-4.1 0-7.5 3.4-7.5 7.5s3.4 7.5 7.5 7.5c2.3 0 4.3-1 5.6-2.5l2.6 2c-2 2.5-4.9 4-8.2 4-5.8 0-10.5-4.7-10.5-10.5zm18.3-2h1.5v1.5H21v-1.5h1.5v-1.5H21v-1.5h-1.5v1.5h-1.5v1.5zm3.5 4.5h1.5V16h-1.5v-1.5H23v1.5h-1.5v1.5h1.5v1.5z"/>  </svg>  <text class="text" x="481.5" y="69.0">C++</text></g><g style="--hover-color: #777BB4;">  <rect class="b" x="571.5" y="48" width="110" height="34" rx="6"/>  <svg x="583.5" y="57.0" width="16" height="16" viewBox="0 0 24 24">    <path class="icon" d="M12 2C6.48 2 2 6.48 2 12s4.48 10 10 10 10-4.48 10-12S17.52 2 12 2zm-1.8 13.9H8.7v-2.2H6.4v-1.5h2.3V9.8h1.5v2.4h2.2v1.5h-2.2v2.2z"/>  </svg>  <text class="text" x="607.5" y="69.0">PHP</text></g><g style="--hover-color: #007396;">  <rect class="b" x="697.5" y="48" width="110" height="34" rx="6"/>  <svg x="709.5" y="57.0" width="16" height="16" viewBox="0 0 24 24">    <path class="icon" d="M2 10.5c0-.83.67-1.5 1.5-1.5h17c.83 0 1.5.67 1.5 1.5s-.67 1.5-1.5 1.5h-17c-.83 0-1.5-.67-1.5-1.5zm3-5C5 4.67 5.67 4 6.5 4h11c.83 0 1.5.67 1.5 1.5S18.33 7 17.5 7h-11C5.67 7 5 6.33 5 5.5zm-1 11c0-.83.67-1.5 1.5-1.5h13c.83 0 1.5.67 1.5 1.5s-.67 1.5-1.5 1.5h-13c-.83 0-1.5-.67-1.5-1.5z"/>  </svg>  <text class="text" x="733.5" y="69.0">Java</text></g><g style="--hover-color: #336791;">  <rect class="b" x="130.5" y="98" width="110" height="34" rx="6"/>  <svg x="142.5" y="107.0" width="16" height="16" viewBox="0 0 24 24">    <path class="icon" d="M12 2C6.48 2 2 3.8 2 6v12c0 2.2 4.48 4 10 4s10-1.8 10-4V6c0-2.2-4.48-4-10-4zm0 2c4.82 0 8 1.41 8 2s-3.18 2-8 2-8-1.41-8-2 3.18-2 8-2zm-8 4.4c1.66.76 4.54 1.6 8 1.6s6.34-.84 8-1.6v2.2c0 .59-3.18 2-8 2s-8-1.41-8-2V8.4zm0 4.4c1.66.76 4.54 1.6 8 1.6s6.34-.84 8-1.6v2.2c0 .59-3.18 2-8 2s-8-1.41-8-2v-2.2z"/>  </svg>  <text class="text" x="166.5" y="119.0">SQL</text></g><g style="--hover-color: #61DAFB;">  <rect class="b" x="256.5" y="98" width="110" height="34" rx="6"/>  <svg x="268.5" y="107.0" width="16" height="16" viewBox="0 0 24 24">    <path class="icon" d="M22 12c0-1.1-.9-2-2-2h-3.5c-.5 0-1-.2-1.4-.6l-2.6-2.6c-.4-.4-.6-.9-.6-1.4V3.5c0-1.1-.9-2-2-2s-2 .9-2 2v3.5c0 .5-.2 1-.6 1.4L4.7 9.4c-.4.4-.9.6-1.4.6H2c-1.1 0-2 .9-2 2s.9 2 2 2h3.5c.5 0 1 .2 1.4.6l2.6 2.6c.4.4.6.9.6 1.4v3.5c0 1.1.9 2 2 2s2-.9 2-2v-3.5c0-.5.2-1 .6-1.4l2.6-2.6c.4-.4.9-.6 1.4-.6H20c1.1 0 2-.9 2-2z"/>  </svg>  <text class="text" x="292.5" y="119.0">React</text></g><g style="--hover-color: #339933;">  <rect class="b" x="382.5" y="98" width="110" height="34" rx="6"/>  <svg x="394.5" y="107.0" width="16" height="16" viewBox="0 0 24 24">    <path class="icon" d="M12 2L2 7.7v11.5L12 25l10-5.8V7.7L12 2zm8 15.8l-8 4.6-8-4.6V8.9l8-4.6 8 4.6v8.9z"/>  </svg>  <text class="text" x="418.5" y="119.0">Node.js</text></g><g style="--hover-color: #2496ED;">  <rect class="b" x="508.5" y="98" width="110" height="34" rx="6"/>  <svg x="520.5" y="107.0" width="16" height="16" viewBox="0 0 24 24">    <path class="icon" d="M13.983 11.078h2.119c.102 0 .186-.084.186-.186V9.214c0-.102-.084-.186-.186-.186h-2.119c-.102 0-.186.084-.186.186v1.678c0 .102.084.186.186.186zm-2.93 0h2.118c.102 0 .185-.084.185-.186V9.214c0-.102-.083-.186-.185-.186h-2.119c-.101 0-.185.084-.185.186v1.678c0 .102.084.186.185.186zm-2.93 0h2.12c.101 0 .185-.084.185-.186V9.214c0-.102-.084-.186-.185-.186h-2.12c-.101 0-.184.084-.184.186v1.678c0 .102.083.186.184.186zm-2.92 0h2.12c.101 0 .185-.084.185-.186V9.214c0-.102-.084-.186-.185-.186h-2.12c-.101 0-.184.084-.184.186v1.678c0 .102.083.186.184.186zm-2.919 0h2.119c.102 0 .186-.084.186-.186V9.214c0-.102-.084-.186-.186-.186H.284c-.102 0-.186.084-.186.186v1.678c0 .102.084.186.186.186zM15 1.614c-.072 0-.135.033-.183.081-.048.048-.081.111-.081.183v1.678c0 .144.12.264.264.264h2.119c.144 0 .264-.12.264-.264V1.878c0-.144-.12-.264-.264-.264H15zm-2.93 2.92c-.072 0-.135.033-.183.081-.048.048-.081.111-.081.183v1.678c0 .144.12.264.264.264h2.119c.144 0 .264-.12.264-.264V4.878c0-.144-.12-.264-.264-.264H12.07zm-2.93 0c-.072 0-.135.033-.183.081-.048.048-.081.111-.081.183v1.678c0 .144.12.264.264.264h2.119c.144 0 .264-.12.264-.264V4.878c0-.144-.12-.264-.264-.264H9.14z"/>  </svg>  <text class="text" x="544.5" y="119.0">Docker</text></g><g style="--hover-color: #F05032;">  <rect class="b" x="634.5" y="98" width="110" height="34" rx="6"/>  <svg x="646.5" y="107.0" width="16" height="16" viewBox="0 0 24 24">    <path class="icon" d="M23.546 10.93L13.07.45a1.8 1.8 0 0 0-2.548 0L9.4 1.568l3.145 3.145a1.69 1.69 0 0 1 2.382 0 1.69 1.69 0 0 1 0 2.382l-3.145 3.145a1.69 1.69 0 0 1-2.096.248l-2.7-2.7a1.69 1.69 0 0 1-.248 2.096L1.575 14.99a1.8 1.8 0 0 0 0 2.548L12.05 28.01a1.8 1.8 0 0 0 2.548 0L25.12 17.54a1.8 1.8 0 0 0 0-2.548zM9.4 10.1l-3.145-3.145a1.69 1.69 0 0 1 0-2.382 1.69 1.69 0 0 1 2.382 0l3.145 3.145a1.69 1.69 0 0 1 0 2.382A1.69 1.69 0 0 1 9.4 10.1z"/>  </svg>  <text class="text" x="670.5" y="119.0">Git</text></g></svg>