<svg xmlns="http://www.w3.org/2000/svg" width="875" height="560" viewBox="0 0 875 560" font-family="ui-monospace, SFMono-Regular, Menlo, Consolas, monospace"><style>.card-bg {
      fill: #161b22;
      stroke: #21262d;
      stroke-width: 1;
      transition: all 0.3s cubic-bezier(.2,.8,.2,1);
    }
    .card-group:hover .card-bg {
      stroke: var(--accent);
      filter: drop-shadow(0px 4px 12px rgba(0, 0, 0, 0.25));
    }
    .accent-bar {
      transition: all 0.3s ease;
    }
    .card-group:hover .accent-bar {
      filter: drop-shadow(0px 0px 8px var(--accent));
    }
    .card-title {
      fill: var(--accent);
      font-size: 10px;
      font-weight: 700;
      letter-spacing: 0.5px;
      transition: all 0.3s ease;
    }
    .card-group:hover .card-title {
      filter: drop-shadow(0px 0px 4px var(--accent));
    }
    
    /* Badges */
    .b-bg {
      fill: #0d1117;
      stroke: #21262d;
      stroke-width: 1;
      transition: all 0.2s ease;
    }
    .b-group:hover .b-bg {
      stroke: var(--accent);
      fill: #1c2735;
      filter: drop-shadow(0px 0px 4px rgba(34, 211, 238, 0.2));
    }
    .b-text {
      font-size: 10px;
      font-weight: 700;
      transition: all 0.2s ease;
    }
    .bracket {
      fill: #7d8590;
    }
    .skill-name {
      fill: #e6edf3;
    }
    .b-group:hover .bracket {
      fill: var(--accent);
    }
    .b-group:hover .skill-name {
      fill: #ffffff;
    }</style><rect width="875" height="560" rx="12" fill="#0d1117"/><rect x="0.5" y="0.5" width="874" height="559" rx="12" fill="none" stroke="#30363d" stroke-width="1"/><circle cx="24" cy="15.0" r="5" fill="#ff5f56"/><circle cx="40" cy="15.0" r="5" fill="#ffbd2e"/><circle cx="56" cy="15.0" r="5" fill="#27c93f"/><text x="437.5" y="19.0" fill="#7d8590" font-size="12" text-anchor="middle">zulvikar@is-a.dev: ~/skills</text><line x1="0" y1="30" x2="875" y2="30" stroke="#30363d"/><g class="card-group" style="--accent: #00f2fe;">  <rect class="card-bg" x="24" y="46" width="265" height="144" rx="6"/>  <rect class="accent-bar" x="24" y="46" width="3" height="144" rx="1.5" fill="#00f2fe"/>  <text class="card-title" x="40" y="72">&gt; PROGRAMMING LANGUAGES</text>  <g class="b-group">    <rect class="b-bg" x="36.0" y="92.0" width="68.0" height="22" rx="4"/>    <text class="b-text" x="70.0" y="107.0" text-anchor="middle"><tspan class="bracket">[ </tspan><tspan class="skill-name">Python</tspan><tspan class="bracket"> ]</tspan></text>  </g>  <g class="b-group">    <rect class="b-bg" x="114.0" y="92.0" width="91.2" height="22" rx="4"/>    <text class="b-text" x="159.6" y="107.0" text-anchor="middle"><tspan class="bracket">[ </tspan><tspan class="skill-name">JavaScript</tspan><tspan class="bracket"> ]</tspan></text>  </g>  <g class="b-group">    <rect class="b-bg" x="36.0" y="122.0" width="91.2" height="22" rx="4"/>    <text class="b-text" x="81.6" y="137.0" text-anchor="middle"><tspan class="bracket">[ </tspan><tspan class="skill-name">TypeScript</tspan><tspan class="bracket"> ]</tspan></text>  </g>  <g class="b-group">    <rect class="b-bg" x="137.2" y="122.0" width="62.2" height="22" rx="4"/>    <text class="b-text" x="168.3" y="137.0" text-anchor="middle"><tspan class="bracket">[ </tspan><tspan class="skill-name">C/C++</tspan><tspan class="bracket"> ]</tspan></text>  </g>  <g class="b-group">    <rect class="b-bg" x="209.4" y="122.0" width="50.6" height="22" rx="4"/>    <text class="b-text" x="234.7" y="137.0" text-anchor="middle"><tspan class="bracket">[ </tspan><tspan class="skill-name">PHP</tspan><tspan class="bracket"> ]</tspan></text>  </g>  <g class="b-group">    <rect class="b-bg" x="36.0" y="152.0" width="56.4" height="22" rx="4"/>    <text class="b-text" x="64.2" y="167.0" text-anchor="middle"><tspan class="bracket">[ </tspan><tspan class="skill-name">Java</tspan><tspan class="bracket"> ]</tspan></text>  </g>  <g class="b-group">    <rect class="b-bg" x="102.4" y="152.0" width="50.6" height="22" rx="4"/>    <text class="b-text" x="127.7" y="167.0" text-anchor="middle"><tspan class="bracket">[ </tspan><tspan class="skill-name">SQL</tspan><tspan class="bracket"> ]</tspan></text>  </g>  <g class="b-group">    <rect class="b-bg" x="163.0" y="152.0" width="97.0" height="22" rx="4"/>    <text class="b-text" x="211.5" y="167.0" text-anchor="middle"><tspan class="bracket">[ </tspan><tspan class="skill-name">MicroPython</tspan><tspan class="bracket"> ]</tspan></text>  </g></g><g class="card-group" style="--accent: #34d399;">  <rect class="card-bg" x="24" y="206" width="265" height="144" rx="6"/>  <rect class="accent-bar" x="24" y="206" width="3" height="144" rx="1.5" fill="#34d399"/>  <text class="card-title" x="40" y="232">&gt; DATABASES & SYSTEMS ANALYSIS</text>  <g class="b-group">    <rect class="b-bg" x="36.0" y="252.0" width="172.4" height="22" rx="4"/>    <text class="b-text" x="122.2" y="267.0" text-anchor="middle"><tspan class="bracket">[ </tspan><tspan class="skill-name">MySQL (Oracle Certified)</tspan><tspan class="bracket"> ]</tspan></text>  </g>  <g class="b-group">    <rect class="b-bg" x="36.0" y="282.0" width="91.2" height="22" rx="4"/>    <text class="b-text" x="81.6" y="297.0" text-anchor="middle"><tspan class="bracket">[ </tspan><tspan class="skill-name">PostgreSQL</tspan><tspan class="bracket"> ]</tspan></text>  </g>  <g class="b-group">    <rect class="b-bg" x="137.2" y="282.0" width="68.0" height="22" rx="4"/>    <text class="b-text" x="171.2" y="297.0" text-anchor="middle"><tspan class="bracket">[ </tspan><tspan class="skill-name">Oracle</tspan><tspan class="bracket"> ]</tspan></text>  </g>  <g class="b-group">    <rect class="b-bg" x="36.0" y="312.0" width="73.8" height="22" rx="4"/>    <text class="b-text" x="72.9" y="327.0" text-anchor="middle"><tspan class="bracket">[ </tspan><tspan class="skill-name">MongoDB</tspan><tspan class="bracket"> ]</tspan></text>  </g>  <g class="b-group">    <rect class="b-bg" x="119.8" y="312.0" width="149.2" height="22" rx="4"/>    <text class="b-text" x="194.4" y="327.0" text-anchor="middle"><tspan class="bracket">[ </tspan><tspan class="skill-name">ERD/DFD Architecture</tspan><tspan class="bracket"> ]</tspan></text>  </g></g><g class="card-group" style="--accent: #22d3ee;">  <rect class="card-bg" x="24" y="366" width="265" height="174" rx="6"/>  <rect class="accent-bar" x="24" y="366" width="3" height="174" rx="1.5" fill="#22d3ee"/>  <text class="card-title" x="40" y="392">&gt; TOOLS, DEVOPS & DEPLOYMENT</text>  <g class="b-group">    <rect class="b-bg" x="36.0" y="412.0" width="50.6" height="22" rx="4"/>    <text class="b-text" x="61.3" y="427.0" text-anchor="middle"><tspan class="bracket">[ </tspan><tspan class="skill-name">Git</tspan><tspan class="bracket"> ]</tspan></text>  </g>  <g class="b-group">    <rect class="b-bg" x="96.6" y="412.0" width="68.0" height="22" rx="4"/>    <text class="b-text" x="130.6" y="427.0" text-anchor="middle"><tspan class="bracket">[ </tspan><tspan class="skill-name">GitHub</tspan><tspan class="bracket"> ]</tspan></text>  </g>  <g class="b-group">    <rect class="b-bg" x="174.6" y="412.0" width="68.0" height="22" rx="4"/>    <text class="b-text" x="208.6" y="427.0" text-anchor="middle"><tspan class="bracket">[ </tspan><tspan class="skill-name">Vercel</tspan><tspan class="bracket"> ]</tspan></text>  </g>  <g class="b-group">    <rect class="b-bg" x="36.0" y="442.0" width="126.0" height="22" rx="4"/>    <text class="b-text" x="99.0" y="457.0" text-anchor="middle"><tspan class="bracket">[ </tspan><tspan class="skill-name">Google Analytics</tspan><tspan class="bracket"> ]</tspan></text>  </g>  <g class="b-group">    <rect class="b-bg" x="172.0" y="442.0" width="97.0" height="22" rx="4"/>    <text class="b-text" x="220.5" y="457.0" text-anchor="middle"><tspan class="bracket">[ </tspan><tspan class="skill-name">Postman API</tspan><tspan class="bracket"> ]</tspan></text>  </g>  <g class="b-group">    <rect class="b-bg" x="36.0" y="472.0" width="73.8" height="22" rx="4"/>    <text class="b-text" x="72.9" y="487.0" text-anchor="middle"><tspan class="bracket">[ </tspan><tspan class="skill-name">VS Code</tspan><tspan class="bracket"> ]</tspan></text>  </g>  <g class="b-group">    <rect class="b-bg" x="119.8" y="472.0" width="79.6" height="22" rx="4"/>    <text class="b-text" x="159.6" y="487.0" text-anchor="middle"><tspan class="bracket">[ </tspan><tspan class="skill-name">Linux OS</tspan><tspan class="bracket"> ]</tspan></text>  </g>  <g class="b-group">    <rect class="b-bg" x="209.4" y="472.0" width="56.4" height="22" rx="4"/>    <text class="b-text" x="237.6" y="487.0" text-anchor="middle"><tspan class="bracket">[ </tspan><tspan class="skill-name">Miro</tspan><tspan class="bracket"> ]</tspan></text>  </g>  <g class="b-group">    <rect class="b-bg" x="36.0" y="502.0" width="68.0" height="22" rx="4"/>    <text class="b-text" x="70.0" y="517.0" text-anchor="middle"><tspan class="bracket">[ </tspan><tspan class="skill-name">Notion</tspan><tspan class="bracket"> ]</tspan></text>  </g>  <g class="b-group">    <rect class="b-bg" x="114.0" y="502.0" width="79.6" height="22" rx="4"/>    <text class="b-text" x="153.8" y="517.0" text-anchor="middle"><tspan class="bracket">[ </tspan><tspan class="skill-name">Supabase</tspan><tspan class="bracket"> ]</tspan></text>  </g></g><g class="card-group" style="--accent: #fb923c;">  <rect class="card-bg" x="305" y="46" width="265" height="144" rx="6"/>  <rect class="accent-bar" x="305" y="46" width="3" height="144" rx="1.5" fill="#fb923c"/>  <text class="card-title" x="321" y="72">&gt; WEB & FRAMEWORK TECHNOLOGIES</text>  <g class="b-group">    <rect class="b-bg" x="317.0" y="92.0" width="73.8" height="22" rx="4"/>    <text class="b-text" x="353.9" y="107.0" text-anchor="middle"><tspan class="bracket">[ </tspan><tspan class="skill-name">Next.js</tspan><tspan class="bracket"> ]</tspan></text>  </g>  <g class="b-group">    <rect class="b-bg" x="400.8" y="92.0" width="73.8" height="22" rx="4"/>    <text class="b-text" x="437.7" y="107.0" text-anchor="middle"><tspan class="bracket">[ </tspan><tspan class="skill-name">Laravel</tspan><tspan class="bracket"> ]</tspan></text>  </g>  <g class="b-group">    <rect class="b-bg" x="317.0" y="122.0" width="73.8" height="22" rx="4"/>    <text class="b-text" x="353.9" y="137.0" text-anchor="middle"><tspan class="bracket">[ </tspan><tspan class="skill-name">Flutter</tspan><tspan class="bracket"> ]</tspan></text>  </g>  <g class="b-group">    <rect class="b-bg" x="400.8" y="122.0" width="73.8" height="22" rx="4"/>    <text class="b-text" x="437.7" y="137.0" text-anchor="middle"><tspan class="bracket">[ </tspan><tspan class="skill-name">Node.js</tspan><tspan class="bracket"> ]</tspan></text>  </g>  <g class="b-group">    <rect class="b-bg" x="317.0" y="152.0" width="102.8" height="22" rx="4"/>    <text class="b-text" x="368.4" y="167.0" text-anchor="middle"><tspan class="bracket">[ </tspan><tspan class="skill-name">Tailwind CSS</tspan><tspan class="bracket"> ]</tspan></text>  </g>  <g class="b-group">    <rect class="b-bg" x="429.8" y="152.0" width="85.4" height="22" rx="4"/>    <text class="b-text" x="472.5" y="167.0" text-anchor="middle"><tspan class="bracket">[ </tspan><tspan class="skill-name">Bootstrap</tspan><tspan class="bracket"> ]</tspan></text>  </g></g><g class="card-group" style="--accent: #fbbf24;">  <rect class="card-bg" x="305" y="206" width="265" height="174" rx="6"/>  <rect class="accent-bar" x="305" y="206" width="3" height="174" rx="1.5" fill="#fbbf24"/>  <text class="card-title" x="321" y="232">&gt; AUTOMATION & CORE PROTOCOLS</text>  <g class="b-group">    <rect class="b-bg" x="317.0" y="252.0" width="160.8" height="22" rx="4"/>    <text class="b-text" x="397.4" y="267.0" text-anchor="middle"><tspan class="bracket">[ </tspan><tspan class="skill-name">ESP32/Arduino Firmware</tspan><tspan class="bracket"> ]</tspan></text>  </g>  <g class="b-group">    <rect class="b-bg" x="317.0" y="282.0" width="97.0" height="22" rx="4"/>    <text class="b-text" x="365.5" y="297.0" text-anchor="middle"><tspan class="bracket">[ </tspan><tspan class="skill-name">MQTT Broker</tspan><tspan class="bracket"> ]</tspan></text>  </g>  <g class="b-group">    <rect class="b-bg" x="424.0" y="282.0" width="97.0" height="22" rx="4"/>    <text class="b-text" x="472.5" y="297.0" text-anchor="middle"><tspan class="bracket">[ </tspan><tspan class="skill-name">UDP Sockets</tspan><tspan class="bracket"> ]</tspan></text>  </g>  <g class="b-group">    <rect class="b-bg" x="317.0" y="312.0" width="131.8" height="22" rx="4"/>    <text class="b-text" x="382.9" y="327.0" text-anchor="middle"><tspan class="bracket">[ </tspan><tspan class="skill-name">I2S Digital Audio</tspan><tspan class="bracket"> ]</tspan></text>  </g>  <g class="b-group">    <rect class="b-bg" x="458.8" y="312.0" width="97.0" height="22" rx="4"/>    <text class="b-text" x="507.3" y="327.0" text-anchor="middle"><tspan class="bracket">[ </tspan><tspan class="skill-name">PWM Control</tspan><tspan class="bracket"> ]</tspan></text>  </g>  <g class="b-group">    <rect class="b-bg" x="317.0" y="342.0" width="79.6" height="22" rx="4"/>    <text class="b-text" x="356.8" y="357.0" text-anchor="middle"><tspan class="bracket">[ </tspan><tspan class="skill-name">FreeRTOS</tspan><tspan class="bracket"> ]</tspan></text>  </g>  <g class="b-group">    <rect class="b-bg" x="406.6" y="342.0" width="85.4" height="22" rx="4"/>    <text class="b-text" x="449.3" y="357.0" text-anchor="middle"><tspan class="bracket">[ </tspan><tspan class="skill-name">Robot 2wd</tspan><tspan class="bracket"> ]</tspan></text>  </g></g><g class="card-group" style="--accent: #a78bfa;">  <rect class="card-bg" x="586" y="46" width="265" height="174" rx="6"/>  <rect class="accent-bar" x="586" y="46" width="3" height="174" rx="1.5" fill="#a78bfa"/>  <text class="card-title" x="602" y="72">&gt; DATA SCIENCE, AI & ANALYTICS</text>  <g class="b-group">    <rect class="b-bg" x="598.0" y="92.0" width="91.2" height="22" rx="4"/>    <text class="b-text" x="643.6" y="107.0" text-anchor="middle"><tspan class="bracket">[ </tspan><tspan class="skill-name">TensorFlow</tspan><tspan class="bracket"> ]</tspan></text>  </g>  <g class="b-group">    <rect class="b-bg" x="699.2" y="92.0" width="62.2" height="22" rx="4"/>    <text class="b-text" x="730.3" y="107.0" text-anchor="middle"><tspan class="bracket">[ </tspan><tspan class="skill-name">Keras</tspan><tspan class="bracket"> ]</tspan></text>  </g>  <g class="b-group">    <rect class="b-bg" x="598.0" y="122.0" width="68.0" height="22" rx="4"/>    <text class="b-text" x="632.0" y="137.0" text-anchor="middle"><tspan class="bracket">[ </tspan><tspan class="skill-name">OpenCV</tspan><tspan class="bracket"> ]</tspan></text>  </g>  <g class="b-group">    <rect class="b-bg" x="676.0" y="122.0" width="85.4" height="22" rx="4"/>    <text class="b-text" x="718.7" y="137.0" text-anchor="middle"><tspan class="bracket">[ </tspan><tspan class="skill-name">MediaPipe</tspan><tspan class="bracket"> ]</tspan></text>  </g>  <g class="b-group">    <rect class="b-bg" x="598.0" y="152.0" width="224.6" height="22" rx="4"/>    <text class="b-text" x="710.3" y="167.0" text-anchor="middle"><tspan class="bracket">[ </tspan><tspan class="skill-name">Natural Language Processing (NLP)</tspan><tspan class="bracket"> ]</tspan></text>  </g>  <g class="b-group">    <rect class="b-bg" x="598.0" y="182.0" width="108.6" height="22" rx="4"/>    <text class="b-text" x="652.3" y="197.0" text-anchor="middle"><tspan class="bracket">[ </tspan><tspan class="skill-name">Data Scraping</tspan><tspan class="bracket"> ]</tspan></text>  </g></g><g class="card-group" style="--accent: #cbd5e1;">  <rect class="card-bg" x="586" y="236" width="265" height="114" rx="6"/>  <rect class="accent-bar" x="586" y="236" width="3" height="114" rx="1.5" fill="#cbd5e1"/>  <text class="card-title" x="602" y="262">&gt; METHODOLOGIES & FRAMEWORKS</text>  <g class="b-group">    <rect class="b-bg" x="598.0" y="282.0" width="160.8" height="22" rx="4"/>    <text class="b-text" x="678.4" y="297.0" text-anchor="middle"><tspan class="bracket">[ </tspan><tspan class="skill-name">CRISP-DM (Data Mining)</tspan><tspan class="bracket"> ]</tspan></text>  </g>  <g class="b-group">    <rect class="b-bg" x="598.0" y="312.0" width="253.6" height="22" rx="4"/>    <text class="b-text" x="724.8" y="327.0" text-anchor="middle"><tspan class="bracket">[ </tspan><tspan class="skill-name">SDLC (Waterfall / Agile Methodologies)</tspan><tspan class="bracket"> ]</tspan></text>  </g></g></svg>